<?xml version="1.0" encoding="UTF-8" standalone="no"?>
<!DOCTYPE svg PUBLIC "-//W3C//DTD SVG 1.1//EN" "http://www.w3.org/Graphics/SVG/1.1/DTD/svg11.dtd">
<svg xmlns="http://www.w3.org/2000/svg" version="1.1" viewBox="0.00 0.00 500.00 500.00">
<g stroke-width="2.00" fill="none" stroke-linecap="butt">
<path stroke="#0f6fa7" vector-effect="non-scaling-stroke" d="
  M 404.98 294.07
  Q 375.74 292.86 360.00 292.79
  Q 358.41 292.78 357.37 293.94"
/>
<path stroke="#0e8ec4" vector-effect="non-scaling-stroke" d="
  M 357.37 293.94
  L 356.60 289.67
  Q 356.49 289.03 355.84 289.02
  L 306.70 288.09"
/>
<path stroke="#136299" vector-effect="non-scaling-stroke" d="
  M 306.70 288.09
  L 311.37 287.92
  Q 311.95 287.90 311.89 287.32
  Q 311.85 286.85 311.63 286.51
  Q 311.44 286.21 311.79 286.13
  L 313.02 285.86
  Q 313.50 285.75 313.89 285.45
  Q 316.36 283.52 320.73 281.59
  Q 325.42 279.51 332.25 274.29
  Q 336.85 270.77 338.65 266.14
  Q 340.11 262.39 341.56 260.31
  Q 341.82 259.93 341.73 259.47
  L 341.51 258.48"
/>
<path stroke="#7bb4d0" vector-effect="non-scaling-stroke" d="
  M 341.51 258.48
  Q 342.08 258.00 342.09 257.07
  Q 342.29 244.79 342.38 232.43
  Q 342.38 231.92 341.88 231.93
  L 328.56 232.21"
/>
<path stroke="#136299" vector-effect="non-scaling-stroke" d="
  M 328.56 232.21
  Q 329.61 228.99 332.42 227.66
  Q 332.55 227.60 332.48 227.52
  Q 332.39 227.43 332.31 227.33
  Q 332.24 227.26 332.32 227.19
  C 334.54 224.99 336.89 222.80 338.79 220.33
  C 340.19 218.51 342.47 217.66 343.48 215.19
  Q 344.52 212.63 345.19 211.53
  Q 347.71 207.34 349.16 202.66
  Q 349.31 202.18 349.66 201.83
  Q 349.91 201.58 350.06 201.24
  Q 351.61 197.83 350.89 194.74"
/>
<path stroke="#7bb4d0" vector-effect="non-scaling-stroke" d="
  M 350.89 194.74
  L 362.23 186.10"
/>
<path stroke="#0d77b0" vector-effect="non-scaling-stroke" d="
  M 362.23 186.10
  Q 364.12 185.54 366.04 184.19
  Q 367.34 183.28 367.66 182.15
  C 368.32 179.80 364.85 177.92 363.79 176.64
  A 12.43 0.92 44.1 0 0 361.35 173.90
  L 358.61 170.98
  A 1.83 1.81 -20.5 0 0 357.32 170.40
  L 268.45 168.55"
/>
<path stroke="#136299" vector-effect="non-scaling-stroke" d="
  M 268.45 168.55
  L 250.56 168.29"
/>
<path stroke="#0d77b0" vector-effect="non-scaling-stroke" d="
  M 250.56 168.29
  Q 248.37 168.26 246.91 167.55
  A 2.24 2.22 13.3 0 1 245.64 165.51
  L 247.02 69.07
  Q 247.03 68.59 246.68 68.26
  Q 245.79 67.43 245.79 65.69"
/>
<path stroke="#7d93b0" vector-effect="non-scaling-stroke" d="
  M 350.89 194.74
  C 344.71 200.03 338.77 205.49 331.91 209.68
  C 328.38 211.85 325.40 212.13 321.37 212.15
  Q 276.80 212.41 232.28 211.74
  A 0.49 0.48 -89.4 0 0 231.79 212.23
  L 231.75 287.40"
/>
<path stroke="#78bfdb" vector-effect="non-scaling-stroke" d="
  M 231.75 287.40
  Q 231.49 297.33 231.83 307.00
  C 232.05 313.34 235.88 317.57 241.11 320.93"
/>
<path stroke="#7c899e" vector-effect="non-scaling-stroke" d="
  M 241.11 320.93
  Q 252.13 330.58 262.75 340.25
  Q 269.05 345.99 277.00 349.11"
/>
<path stroke="#7c899e" vector-effect="non-scaling-stroke" d="
  M 254.94 376.39
  Q 224.94 348.16 195.20 320.30
  C 192.35 317.63 192.96 314.10 192.93 309.75
  Q 192.70 264.14 193.26 218.54
  C 193.28 217.00 193.65 214.99 193.53 213.35
  A 1.15 1.15 0.0 0 0 192.39 212.29
  Q 178.77 212.25 166.58 212.37
  C 162.99 212.41 159.68 208.22 157.54 205.72
  Q 149.76 196.64 141.02 188.49
  Q 139.15 186.75 138.56 184.21"
/>
<path stroke="#7d93b0" vector-effect="non-scaling-stroke" d="
  M 328.56 232.21
  L 254.10 232.42
  Q 253.04 232.42 253.01 233.48
  L 252.32 256.75
  Q 252.27 258.72 254.23 258.71
  Q 291.35 258.68 325.75 258.90
  Q 333.67 258.95 341.51 258.48"
/>
<path stroke="#106da4" vector-effect="non-scaling-stroke" d="
  M 306.70 288.09
  L 231.75 287.40"
/>
<path stroke="#0f5690" vector-effect="non-scaling-stroke" d="
  M 268.45 168.55
  Q 269.12 168.88 269.60 169.35
  Q 269.95 169.70 269.67 170.12
  Q 269.00 171.08 269.11 172.21
  Q 269.17 172.78 268.85 173.24
  L 267.77 174.78
  Q 267.69 174.89 267.75 175.01
  Q 267.81 175.13 267.89 175.27
  A 1.12 0.61 10.3 0 1 266.29 175.80
  Q 265.27 175.35 264.04 175.24
  C 263.14 175.16 261.92 175.72 260.87 175.04
  Q 260.52 174.81 260.10 174.87
  Q 259.43 174.95 258.85 174.78
  Q 258.40 174.65 258.02 174.94
  L 256.94 175.77
  Q 256.54 176.08 256.03 176.08
  Q 253.98 176.10 252.12 176.99
  Q 251.67 177.20 251.17 177.25
  L 237.31 178.61
  A 0.34 0.34 0.0 0 0 237.04 179.10
  L 237.36 179.75
  Q 237.57 180.17 238.03 180.09
  Q 238.59 179.98 239.78 181.52"
/>
<path stroke="#7d93b0" vector-effect="non-scaling-stroke" d="
  M 239.78 181.52
  Q 195.90 181.93 152.00 181.73
  Q 146.22 181.71 140.50 182.55
  Q 138.77 182.81 138.56 184.21"
/>
<path stroke="#153667" vector-effect="non-scaling-stroke" d="
  M 138.56 184.21
  Q 137.02 183.14 135.56 185.44
  C 133.17 189.20 135.69 193.97 135.83 197.67
  C 135.95 200.60 135.60 203.84 135.89 206.43
  C 136.56 212.61 140.22 218.90 144.53 223.39
  C 150.90 230.01 159.61 230.84 168.09 232.56
  Q 170.61 233.07 171.89 234.50
  Q 173.70 236.55 173.56 238.76
  C 173.21 244.32 174.21 249.68 174.29 255.25
  C 174.51 270.18 174.59 285.11 175.91 300.00
  Q 176.44 306.02 177.54 311.97
  Q 177.60 312.35 177.99 312.40
  Q 178.29 312.43 178.36 312.75
  C 180.18 321.02 181.81 329.02 185.02 336.24
  C 190.27 348.06 200.23 357.95 211.26 366.23
  Q 222.43 374.61 231.07 379.75
  C 236.56 383.01 243.03 384.95 249.37 383.14
  Q 249.87 383.00 250.18 382.59
  L 254.94 376.39"
/>
<path stroke="#7d93b0" vector-effect="non-scaling-stroke" d="
  M 254.94 376.39
  C 264.75 369.13 273.51 360.59 282.34 352.12
  A 0.61 0.61 0.0 0 0 282.14 351.11
  L 277.00 349.11"
/>
<path stroke="#153667" vector-effect="non-scaling-stroke" d="
  M 277.00 349.11
  Q 275.39 347.58 273.12 346.72
  Q 272.69 346.56 272.50 346.13
  Q 271.87 344.74 270.59 344.87
  A 1.42 1.42 0.0 0 1 269.04 343.44
  C 269.09 340.78 271.94 341.39 273.78 340.83
  Q 282.60 338.14 291.76 337.19
  Q 291.87 337.18 291.88 337.07
  Q 291.89 336.92 291.98 336.78
  Q 292.01 336.73 292.08 336.72
  Q 295.71 336.36 299.21 335.31
  Q 299.67 335.17 300.12 335.35
  Q 300.45 335.49 300.76 335.40
  C 305.48 334.15 310.86 332.26 315.17 329.62
  Q 318.44 327.62 319.24 326.73
  Q 320.71 325.13 322.35 323.29"
/>
<path stroke="#106da4" vector-effect="non-scaling-stroke" d="
  M 322.35 323.29
  C 323.10 323.46 324.11 323.44 324.84 322.99
  C 332.44 318.38 339.38 311.88 346.16 306.11"
/>
<path stroke="#114e87" vector-effect="non-scaling-stroke" d="
  M 346.16 306.11
  Q 347.43 307.12 346.35 308.34
  C 345.63 309.16 344.37 311.17 344.01 312.12
  Q 341.99 317.57 339.87 322.97
  Q 337.59 328.77 330.20 337.17
  Q 330.07 337.32 330.15 337.51
  Q 330.21 337.62 330.27 337.73
  Q 330.40 337.98 330.22 338.19
  Q 324.42 345.14 321.00 347.75
  Q 318.46 349.68 317.18 351.06
  Q 316.84 351.41 317.09 351.83
  Q 317.33 352.24 317.00 352.49
  Q 315.32 353.77 313.75 355.15
  Q 312.22 356.48 310.45 357.73
  C 308.26 359.27 306.34 361.25 304.01 362.59
  Q 302.69 363.36 301.80 364.31
  C 299.57 366.68 297.02 368.30 294.50 370.50
  Q 293.42 371.44 291.67 372.68
  Q 284.58 377.70 277.08 385.44
  Q 274.32 388.29 272.37 391.55
  C 270.96 393.93 268.29 397.73 268.40 400.50
  A 0.67 0.66 -11.6 0 1 267.97 401.15
  Q 267.51 401.33 267.64 401.81
  Q 267.74 402.17 267.55 402.50
  L 265.22 406.54
  Q 265.06 406.81 264.76 406.88
  Q 264.47 406.96 264.44 407.26
  Q 264.39 407.70 264.70 407.95
  Q 265.01 408.18 264.92 408.56
  Q 264.66 409.68 264.42 411.99
  Q 263.90 417.06 260.89 422.73
  C 260.43 423.61 260.63 424.35 261.29 425.03
  A 0.68 0.68 0.0 0 1 261.28 425.98
  L 260.43 426.84
  Q 260.13 427.14 260.43 427.43
  Q 260.58 427.57 260.77 427.62
  Q 261.08 427.70 261.10 428.02
  Q 261.16 429.11 262.31 429.10
  Q 262.89 429.10 263.16 428.58
  Q 263.23 428.44 263.40 428.37
  Q 263.87 428.16 263.76 428.67
  Q 263.43 430.19 261.89 431.62
  Q 259.71 433.66 259.42 436.41"
/>
<path stroke="#0f5690" vector-effect="non-scaling-stroke" d="
  M 250.56 168.29
  Q 249.25 168.59 245.25 168.69
  Q 215.76 169.41 186.26 169.67
  C 172.94 169.79 156.86 170.88 142.09 170.52
  Q 140.58 170.48 139.03 171.06
  Q 137.50 171.63 136.00 172.03"
/>
<path stroke="#77a8c7" vector-effect="non-scaling-stroke" d="
  M 362.23 186.10
  L 365.51 183.79
  A 0.78 0.78 0.0 0 0 365.24 182.39
  Q 361.31 181.45 357.00 181.44
  Q 298.40 181.33 239.78 181.52"
/>
<path stroke="#0c7ab1" vector-effect="non-scaling-stroke" d="
  M 357.37 293.94
  Q 352.58 300.91 346.16 306.11"
/>
<path stroke="#106391" vector-effect="non-scaling-stroke" d="
  M 322.35 323.29
  Q 314.85 322.24 310.50 322.24
  Q 278.87 322.24 247.25 321.96
  Q 243.90 321.93 241.11 320.93"
/>
</g>
<path fill="#1183b9" d="
  M 404.98 294.07
  Q 375.74 292.86 360.00 292.79
  Q 358.41 292.78 357.37 293.94
  L 356.60 289.67
  Q 356.49 289.03 355.84 289.02
  L 306.70 288.09
  L 311.37 287.92
  Q 311.95 287.90 311.89 287.32
  Q 311.85 286.85 311.63 286.51
  Q 311.44 286.21 311.79 286.13
  L 313.02 285.86
  Q 313.50 285.75 313.89 285.45
  Q 316.36 283.52 320.73 281.59
  Q 325.42 279.51 332.25 274.29
  Q 336.85 270.77 338.65 266.14
  Q 340.11 262.39 341.56 260.31
  Q 341.82 259.93 341.73 259.47
  L 341.51 258.48
  Q 342.08 258.00 342.09 257.07
  Q 342.29 244.79 342.38 232.43
  Q 342.38 231.92 341.88 231.93
  L 328.56 232.21
  Q 329.61 228.99 332.42 227.66
  Q 332.55 227.60 332.48 227.52
  Q 332.39 227.43 332.31 227.33
  Q 332.24 227.26 332.32 227.19
  C 334.54 224.99 336.89 222.80 338.79 220.33
  C 340.19 218.51 342.47 217.66 343.48 215.19
  Q 344.52 212.63 345.19 211.53
  Q 347.71 207.34 349.16 202.66
  Q 349.31 202.18 349.66 201.83
  Q 349.91 201.58 350.06 201.24
  Q 351.61 197.83 350.89 194.74
  L 362.23 186.10
  Q 364.12 185.54 366.04 184.19
  Q 367.34 183.28 367.66 182.15
  C 368.32 179.80 364.85 177.92 363.79 176.64
  A 12.43 0.92 44.1 0 0 361.35 173.90
  L 358.61 170.98
  A 1.83 1.81 -20.5 0 0 357.32 170.40
  L 268.45 168.55
  L 250.56 168.29
  Q 248.37 168.26 246.91 167.55
  A 2.24 2.22 13.3 0 1 245.64 165.51
  L 247.02 69.07
  Q 247.03 68.59 246.68 68.26
  Q 245.79 67.43 245.79 65.69
  Q 246.93 65.33 247.80 66.18
  C 260.03 78.09 272.34 88.92 283.39 99.49
  Q 319.31 133.84 356.02 167.35
  C 378.54 187.91 400.33 211.38 414.12 223.88
  Q 428.94 237.30 443.51 251.14
  Q 445.12 252.66 443.58 254.25
  L 404.98 294.07
  Z"
/>
<g fill="#e4e5e7">
<path d="
  M 239.78 181.52
  Q 298.40 181.33 357.00 181.44
  Q 361.31 181.45 365.24 182.39
  A 0.78 0.78 0.0 0 1 365.51 183.79
  L 362.23 186.10
  L 350.89 194.74
  C 344.71 200.03 338.77 205.49 331.91 209.68
  C 328.38 211.85 325.40 212.13 321.37 212.15
  Q 276.80 212.41 232.28 211.74
  A 0.49 0.48 -89.4 0 0 231.79 212.23
  L 231.75 287.40
  Q 231.49 297.33 231.83 307.00
  C 232.05 313.34 235.88 317.57 241.11 320.93
  Q 252.13 330.58 262.75 340.25
  Q 269.05 345.99 277.00 349.11
  L 282.14 351.11
  A 0.61 0.61 0.0 0 1 282.34 352.12
  C 273.51 360.59 264.75 369.13 254.94 376.39
  Q 224.94 348.16 195.20 320.30
  C 192.35 317.63 192.96 314.10 192.93 309.75
  Q 192.70 264.14 193.26 218.54
  C 193.28 217.00 193.65 214.99 193.53 213.35
  A 1.15 1.15 0.0 0 0 192.39 212.29
  Q 178.77 212.25 166.58 212.37
  C 162.99 212.41 159.68 208.22 157.54 205.72
  Q 149.76 196.64 141.02 188.49
  Q 139.15 186.75 138.56 184.21
  Q 138.77 182.81 140.50 182.55
  Q 146.22 181.71 152.00 181.73
  Q 195.90 181.93 239.78 181.52
  Z"
/>
<path d="
  M 341.51 258.48
  Q 333.67 258.95 325.75 258.90
  Q 291.35 258.68 254.23 258.71
  Q 252.27 258.72 252.32 256.75
  L 253.01 233.48
  Q 253.04 232.42 254.10 232.42
  L 328.56 232.21
  L 341.88 231.93
  Q 342.38 231.92 342.38 232.43
  Q 342.29 244.79 342.09 257.07
  Q 342.08 258.00 341.51 258.48
  Z"
/>
</g>
<g fill="#154079">
<path d="
  M 268.45 168.55
  Q 269.12 168.88 269.60 169.35
  Q 269.95 169.70 269.67 170.12
  Q 269.00 171.08 269.11 172.21
  Q 269.17 172.78 268.85 173.24
  L 267.77 174.78
  Q 267.69 174.89 267.75 175.01
  Q 267.81 175.13 267.89 175.27
  A 1.12 0.61 10.3 0 1 266.29 175.80
  Q 265.27 175.35 264.04 175.24
  C 263.14 175.16 261.92 175.72 260.87 175.04
  Q 260.52 174.81 260.10 174.87
  Q 259.43 174.95 258.85 174.78
  Q 258.40 174.65 258.02 174.94
  L 256.94 175.77
  Q 256.54 176.08 256.03 176.08
  Q 253.98 176.10 252.12 176.99
  Q 251.67 177.20 251.17 177.25
  L 237.31 178.61
  A 0.34 0.34 0.0 0 0 237.04 179.10
  L 237.36 179.75
  Q 237.57 180.17 238.03 180.09
  Q 238.59 179.98 239.78 181.52
  Q 195.90 181.93 152.00 181.73
  Q 146.22 181.71 140.50 182.55
  Q 138.77 182.81 138.56 184.21
  Q 137.02 183.14 135.56 185.44
  C 133.17 189.20 135.69 193.97 135.83 197.67
  C 135.95 200.60 135.60 203.84 135.89 206.43
  C 136.56 212.61 140.22 218.90 144.53 223.39
  C 150.90 230.01 159.61 230.84 168.09 232.56
  Q 170.61 233.07 171.89 234.50
  Q 173.70 236.55 173.56 238.76
  C 173.21 244.32 174.21 249.68 174.29 255.25
  C 174.51 270.18 174.59 285.11 175.91 300.00
  Q 176.44 306.02 177.54 311.97
  Q 177.60 312.35 177.99 312.40
  Q 178.29 312.43 178.36 312.75
  C 180.18 321.02 181.81 329.02 185.02 336.24
  C 190.27 348.06 200.23 357.95 211.26 366.23
  Q 222.43 374.61 231.07 379.75
  C 236.56 383.01 243.03 384.95 249.37 383.14
  Q 249.87 383.00 250.18 382.59
  L 254.94 376.39
  C 264.75 369.13 273.51 360.59 282.34 352.12
  A 0.61 0.61 0.0 0 0 282.14 351.11
  L 277.00 349.11
  Q 275.39 347.58 273.12 346.72
  Q 272.69 346.56 272.50 346.13
  Q 271.87 344.74 270.59 344.87
  A 1.42 1.42 0.0 0 1 269.04 343.44
  C 269.09 340.78 271.94 341.39 273.78 340.83
  Q 282.60 338.14 291.76 337.19
  Q 291.87 337.18 291.88 337.07
  Q 291.89 336.92 291.98 336.78
  Q 292.01 336.73 292.08 336.72
  Q 295.71 336.36 299.21 335.31
  Q 299.67 335.17 300.12 335.35
  Q 300.45 335.49 300.76 335.40
  C 305.48 334.15 310.86 332.26 315.17 329.62
  Q 318.44 327.62 319.24 326.73
  Q 320.71 325.13 322.35 323.29
  C 323.10 323.46 324.11 323.44 324.84 322.99
  C 332.44 318.38 339.38 311.88 346.16 306.11
  Q 347.43 307.12 346.35 308.34
  C 345.63 309.16 344.37 311.17 344.01 312.12
  Q 341.99 317.57 339.87 322.97
  Q 337.59 328.77 330.20 337.17
  Q 330.07 337.32 330.15 337.51
  Q 330.21 337.62 330.27 337.73
  Q 330.40 337.98 330.22 338.19
  Q 324.42 345.14 321.00 347.75
  Q 318.46 349.68 317.18 351.06
  Q 316.84 351.41 317.09 351.83
  Q 317.33 352.24 317.00 352.49
  Q 315.32 353.77 313.75 355.15
  Q 312.22 356.48 310.45 357.73
  C 308.26 359.27 306.34 361.25 304.01 362.59
  Q 302.69 363.36 301.80 364.31
  C 299.57 366.68 297.02 368.30 294.50 370.50
  Q 293.42 371.44 291.67 372.68
  Q 284.58 377.70 277.08 385.44
  Q 274.32 388.29 272.37 391.55
  C 270.96 393.93 268.29 397.73 268.40 400.50
  A 0.67 0.66 -11.6 0 1 267.97 401.15
  Q 267.51 401.33 267.64 401.81
  Q 267.74 402.17 267.55 402.50
  L 265.22 406.54
  Q 265.06 406.81 264.76 406.88
  Q 264.47 406.96 264.44 407.26
  Q 264.39 407.70 264.70 407.95
  Q 265.01 408.18 264.92 408.56
  Q 264.66 409.68 264.42 411.99
  Q 263.90 417.06 260.89 422.73
  C 260.43 423.61 260.63 424.35 261.29 425.03
  A 0.68 0.68 0.0 0 1 261.28 425.98
  L 260.43 426.84
  Q 260.13 427.14 260.43 427.43
  Q 260.58 427.57 260.77 427.62
  Q 261.08 427.70 261.10 428.02
  Q 261.16 429.11 262.31 429.10
  Q 262.89 429.10 263.16 428.58
  Q 263.23 428.44 263.40 428.37
  Q 263.87 428.16 263.76 428.67
  Q 263.43 430.19 261.89 431.62
  Q 259.71 433.66 259.42 436.41
  L 253.46 440.58
  Q 252.99 440.91 252.54 440.54
  C 250.55 438.84 248.35 437.31 246.51 435.48
  C 238.39 427.37 229.00 418.95 221.64 411.71
  Q 172.64 363.52 122.77 316.23
  Q 108.22 302.44 60.74 253.76
  C 58.92 251.89 56.41 249.86 58.81 247.31
  Q 62.57 243.32 66.55 239.55
  C 80.15 226.70 93.62 213.96 106.99 200.59
  Q 121.41 186.17 136.00 172.03
  Q 137.50 171.63 139.03 171.06
  Q 140.58 170.48 142.09 170.52
  C 156.86 170.88 172.94 169.79 186.26 169.67
  Q 215.76 169.41 245.25 168.69
  Q 249.25 168.59 250.56 168.29
  L 268.45 168.55
  Z"
/>
<path d="
  M 350.89 194.74
  Q 351.61 197.83 350.06 201.24
  Q 349.91 201.58 349.66 201.83
  Q 349.31 202.18 349.16 202.66
  Q 347.71 207.34 345.19 211.53
  Q 344.52 212.63 343.48 215.19
  C 342.47 217.66 340.19 218.51 338.79 220.33
  C 336.89 222.80 334.54 224.99 332.32 227.19
  Q 332.24 227.26 332.31 227.33
  Q 332.39 227.43 332.48 227.52
  Q 332.55 227.60 332.42 227.66
  Q 329.61 228.99 328.56 232.21
  L 254.10 232.42
  Q 253.04 232.42 253.01 233.48
  L 252.32 256.75
  Q 252.27 258.72 254.23 258.71
  Q 291.35 258.68 325.75 258.90
  Q 333.67 258.95 341.51 258.48
  L 341.73 259.47
  Q 341.82 259.93 341.56 260.31
  Q 340.11 262.39 338.65 266.14
  Q 336.85 270.77 332.25 274.29
  Q 325.42 279.51 320.73 281.59
  Q 316.36 283.52 313.89 285.45
  Q 313.50 285.75 313.02 285.86
  L 311.79 286.13
  Q 311.44 286.21 311.63 286.51
  Q 311.85 286.85 311.89 287.32
  Q 311.95 287.90 311.37 287.92
  L 306.70 288.09
  L 231.75 287.40
  L 231.79 212.23
  A 0.49 0.48 -89.4 0 1 232.28 211.74
  Q 276.80 212.41 321.37 212.15
  C 325.40 212.13 328.38 211.85 331.91 209.68
  C 338.77 205.49 344.71 200.03 350.89 194.74
  Z"
/>
</g>
<g fill="#096ba6">
<path d="
  M 245.79 65.69
  Q 245.79 67.43 246.68 68.26
  Q 247.03 68.59 247.02 69.07
  L 245.64 165.51
  A 2.24 2.22 13.3 0 0 246.91 167.55
  Q 248.37 168.26 250.56 168.29
  Q 249.25 168.59 245.25 168.69
  Q 215.76 169.41 186.26 169.67
  C 172.94 169.79 156.86 170.88 142.09 170.52
  Q 140.58 170.48 139.03 171.06
  Q 137.50 171.63 136.00 172.03
  Q 192.24 117.51 211.64 98.14
  Q 229.62 80.19 241.25 69.27
  Q 242.80 67.81 245.79 65.69
  Z"
/>
<path d="
  M 268.45 168.55
  L 357.32 170.40
  A 1.83 1.81 -20.5 0 1 358.61 170.98
  L 361.35 173.90
  A 12.43 0.92 44.1 0 1 363.79 176.64
  C 364.85 177.92 368.32 179.80 367.66 182.15
  Q 367.34 183.28 366.04 184.19
  Q 364.12 185.54 362.23 186.10
  L 365.51 183.79
  A 0.78 0.78 0.0 0 0 365.24 182.39
  Q 361.31 181.45 357.00 181.44
  Q 298.40 181.33 239.78 181.52
  Q 238.59 179.98 238.03 180.09
  Q 237.57 180.17 237.36 179.75
  L 237.04 179.10
  A 0.34 0.34 0.0 0 1 237.31 178.61
  L 251.17 177.25
  Q 251.67 177.20 252.12 176.99
  Q 253.98 176.10 256.03 176.08
  Q 256.54 176.08 256.94 175.77
  L 258.02 174.94
  Q 258.40 174.65 258.85 174.78
  Q 259.43 174.95 260.10 174.87
  Q 260.52 174.81 260.87 175.04
  C 261.92 175.72 263.14 175.16 264.04 175.24
  Q 265.27 175.35 266.29 175.80
  A 1.12 0.61 10.3 0 0 267.89 175.27
  Q 267.81 175.13 267.75 175.01
  Q 267.69 174.89 267.77 174.78
  L 268.85 173.24
  Q 269.17 172.78 269.11 172.21
  Q 269.00 171.08 269.67 170.12
  Q 269.95 169.70 269.60 169.35
  Q 269.12 168.88 268.45 168.55
  Z"
/>
</g>
<path fill="#0b99ce" d="
  M 306.70 288.09
  L 355.84 289.02
  Q 356.49 289.03 356.60 289.67
  L 357.37 293.94
  Q 352.58 300.91 346.16 306.11
  C 339.38 311.88 332.44 318.38 324.84 322.99
  C 324.11 323.44 323.10 323.46 322.35 323.29
  Q 314.85 322.24 310.50 322.24
  Q 278.87 322.24 247.25 321.96
  Q 243.90 321.93 241.11 320.93
  C 235.88 317.57 232.05 313.34 231.83 307.00
  Q 231.49 297.33 231.75 287.40
  L 306.70 288.09
  Z"
/>
<g fill="#142c54">
<path d="
  M 138.56 184.21
  Q 139.15 186.75 141.02 188.49
  Q 149.76 196.64 157.54 205.72
  C 159.68 208.22 162.99 212.41 166.58 212.37
  Q 178.77 212.25 192.39 212.29
  A 1.15 1.15 0.0 0 1 193.53 213.35
  C 193.65 214.99 193.28 217.00 193.26 218.54
  Q 192.70 264.14 192.93 309.75
  C 192.96 314.10 192.35 317.63 195.20 320.30
  Q 224.94 348.16 254.94 376.39
  L 250.18 382.59
  Q 249.87 383.00 249.37 383.14
  C 243.03 384.95 236.56 383.01 231.07 379.75
  Q 222.43 374.61 211.26 366.23
  C 200.23 357.95 190.27 348.06 185.02 336.24
  C 181.81 329.02 180.18 321.02 178.36 312.75
  Q 178.29 312.43 177.99 312.40
  Q 177.60 312.35 177.54 311.97
  Q 176.44 306.02 175.91 300.00
  C 174.59 285.11 174.51 270.18 174.29 255.25
  C 174.21 249.68 173.21 244.32 173.56 238.76
  Q 173.70 236.55 171.89 234.50
  Q 170.61 233.07 168.09 232.56
  C 159.61 230.84 150.90 230.01 144.53 223.39
  C 140.22 218.90 136.56 212.61 135.89 206.43
  C 135.60 203.84 135.95 200.60 135.83 197.67
  C 135.69 193.97 133.17 189.20 135.56 185.44
  Q 137.02 183.14 138.56 184.21
  Z"
/>
<path d="
  M 322.35 323.29
  Q 320.71 325.13 319.24 326.73
  Q 318.44 327.62 315.17 329.62
  C 310.86 332.26 305.48 334.15 300.76 335.40
  Q 300.45 335.49 300.12 335.35
  Q 299.67 335.17 299.21 335.31
  Q 295.71 336.36 292.08 336.72
  Q 292.01 336.73 291.98 336.78
  Q 291.89 336.92 291.88 337.07
  Q 291.87 337.18 291.76 337.19
  Q 282.60 338.14 273.78 340.83
  C 271.94 341.39 269.09 340.78 269.04 343.44
  A 1.42 1.42 0.0 0 0 270.59 344.87
  Q 271.87 344.74 272.50 346.13
  Q 272.69 346.56 273.12 346.72
  Q 275.39 347.58 277.00 349.11
  Q 269.05 345.99 262.75 340.25
  Q 252.13 330.58 241.11 320.93
  Q 243.90 321.93 247.25 321.96
  Q 278.87 322.24 310.50 322.24
  Q 314.85 322.24 322.35 323.29
  Z"
/>
</g>
<path fill="#0d5b94" d="
  M 404.98 294.07
  Q 377.97 320.75 352.20 346.80
  C 336.05 363.13 319.26 378.85 302.92 394.99
  C 299.04 398.83 294.31 402.85 290.68 406.43
  Q 275.43 421.47 259.42 436.41
  Q 259.71 433.66 261.89 431.62
  Q 263.43 430.19 263.76 428.67
  Q 263.87 428.16 263.40 428.37
  Q 263.23 428.44 263.16 428.58
  Q 262.89 429.10 262.31 429.10
  Q 261.16 429.11 261.10 428.02
  Q 261.08 427.70 260.77 427.62
  Q 260.58 427.57 260.43 427.43
  Q 260.13 427.14 260.43 426.84
  L 261.28 425.98
  A 0.68 0.68 0.0 0 0 261.29 425.03
  C 260.63 424.35 260.43 423.61 260.89 422.73
  Q 263.90 417.06 264.42 411.99
  Q 264.66 409.68 264.92 408.56
  Q 265.01 408.18 264.70 407.95
  Q 264.39 407.70 264.44 407.26
  Q 264.47 406.96 264.76 406.88
  Q 265.06 406.81 265.22 406.54
  L 267.55 402.50
  Q 267.74 402.17 267.64 401.81
  Q 267.51 401.33 267.97 401.15
  A 0.67 0.66 -11.6 0 0 268.40 400.50
  C 268.29 397.73 270.96 393.93 272.37 391.55
  Q 274.32 388.29 277.08 385.44
  Q 284.58 377.70 291.67 372.68
  Q 293.42 371.44 294.50 370.50
  C 297.02 368.30 299.57 366.68 301.80 364.31
  Q 302.69 363.36 304.01 362.59
  C 306.34 361.25 308.26 359.27 310.45 357.73
  Q 312.22 356.48 313.75 355.15
  Q 315.32 353.77 317.00 352.49
  Q 317.33 352.24 317.09 351.83
  Q 316.84 351.41 317.18 351.06
  Q 318.46 349.68 321.00 347.75
  Q 324.42 345.14 330.22 338.19
  Q 330.40 337.98 330.27 337.73
  Q 330.21 337.62 330.15 337.51
  Q 330.07 337.32 330.20 337.17
  Q 337.59 328.77 339.87 322.97
  Q 341.99 317.57 344.01 312.12
  C 344.37 311.17 345.63 309.16 346.35 308.34
  Q 347.43 307.12 346.16 306.11
  Q 352.58 300.91 357.37 293.94
  Q 358.41 292.78 360.00 292.79
  Q 375.74 292.86 404.98 294.07
  Z"
/>
</svg>
